<svg xmlns="http://www.w3.org/2000/svg" viewBox="0 0 32 32" width="32" height="32"><path fill="#48bb78" d="M16 4a2 2 0 0 1 2 2v4a2 2 0 0 1-2 2a2 2 0 0 1-2-2V6a2 2 0 0 1 2-2m4 8a2 2 0 0 1 2 2v4a2 2 0 0 1-2 2a2 2 0 0 1-2-2v-4a2 2 0 0 1 2-2m-12 0a2 2 0 0 1 2 2v4a2 2 0 0 1-2 2a2 2 0 0 1-2-2v-4a2 2 0 0 1 2-2m12 8a2 2 0 0 1 2 2v4a2 2 0 0 1-2 2a2 2 0 0 1-2-2v-4a2 2 0 0 1 2-2m-8 0a2 2 0 0 1 2 2v4a2 2 0 0 1-2 2a2 2 0 0 1-2-2v-4a2 2 0 0 1 2-2m-4-16a2 2 0 0 1 2 2v4a2 2 0 0 1-2 2a2 2 0 0 1-2-2V6a2 2 0 0 1 2-2"/></svg>